<svg data-v-423bf9ae="" xmlns="http://www.w3.org/2000/svg" viewBox="0 0 583 90" class="iconLeft"><!----><!----><!----><g data-v-423bf9ae="" id="9df345e1-217b-43ac-ac13-5f9b6a859b65" fill="#000000" transform="matrix(5.802707844736658,0,0,5.802707844736658,106.14056051782134,-5.483559241159334)"><path d="M5.07 9.17L5.33 8.25L5.92 8.25L5.92 10.82L5.33 10.82L5.03 9.86L3.21 9.86L3.21 12.88L6.08 12.88L6.44 11.59L7.06 11.59L7.06 13.72L0.53 13.72L0.53 13.20L1.82 12.91L1.82 5.96L0.53 5.67L0.53 5.15L6.73 5.15L6.73 7.06L6.10 7.06L5.81 5.95L3.21 5.95L3.21 9.17L5.07 9.17ZM12.88 13.06L12.88 13.06Q12.35 13.45 11.79 13.66L11.79 13.66L11.79 13.66Q11.23 13.86 10.56 13.86L10.56 13.86L10.56 13.86Q9.77 13.86 9.22 13.38L9.22 13.38L9.22 13.38Q8.67 12.89 8.39 12.09L8.39 12.09L8.39 12.09Q8.12 11.28 8.12 10.32L8.12 10.32L8.12 10.32Q8.12 8.62 8.95 7.67L8.95 7.67L8.95 7.67Q9.77 6.71 11.24 6.71L11.24 6.71L11.24 6.71Q11.61 6.71 11.96 6.78L11.96 6.78L11.96 6.78Q12.32 6.85 12.57 6.93L12.57 6.93L12.57 6.93Q12.82 7.01 12.84 7.04L12.84 7.04L12.84 4.63L11.63 4.49L11.63 4.06L13.78 3.53L14.22 3.53L14.22 12.80L15.43 13.09L15.43 13.55L15.43 13.55Q14.66 13.78 13.92 13.78L13.92 13.78L13.92 13.78Q13.57 13.78 13.26 13.58L13.26 13.58L13.26 13.58Q12.95 13.38 12.88 13.06L12.88 13.06ZM11.21 12.95L11.21 12.95Q11.66 12.95 12.10 12.78L12.10 12.78L12.10 12.78Q12.54 12.61 12.84 12.42L12.84 12.42L12.84 7.87L12.84 7.87Q12.21 7.46 11.41 7.46L11.41 7.46L11.41 7.46Q10.54 7.46 10.09 8.21L10.09 8.21L10.09 8.21Q9.63 8.96 9.63 10.28L9.63 10.28L9.63 10.28Q9.63 11.51 10.02 12.23L10.02 12.23L10.02 12.23Q10.42 12.95 11.21 12.95L11.21 12.95ZM23.74 13.55L23.74 13.55Q22.95 13.78 22.25 13.78L22.25 13.78L22.25 13.78Q21.88 13.78 21.57 13.58L21.57 13.58L21.57 13.58Q21.25 13.38 21.20 13.05L21.20 13.05L21.20 13.05Q20.47 13.43 19.86 13.64L19.86 13.64L19.86 13.64Q19.25 13.86 18.62 13.86L18.62 13.86L18.62 13.86Q17.75 13.86 17.36 13.39L17.36 13.39L17.36 13.39Q16.97 12.92 16.97 12.21L16.97 12.21L16.97 7.81L15.78 7.67L15.78 7.24L17.92 6.71L18.37 6.71L18.37 11.96L18.37 11.96Q18.37 12.46 18.59 12.68L18.59 12.68L18.59 12.68Q18.80 12.91 19.42 12.91L19.42 12.91L19.42 12.91Q19.75 12.91 20.24 12.78L20.24 12.78L20.24 12.78Q20.73 12.64 21.13 12.46L21.13 12.46L21.13 7.81L19.92 7.67L19.92 7.24L22.06 6.71L22.53 6.71L22.53 12.80L23.74 13.09L23.74 13.55ZM28.59 13.55L28.59 13.55Q28.18 13.66 27.50 13.76L27.50 13.76L27.50 13.76Q26.82 13.85 26.46 13.85L26.46 13.85L26.46 13.85Q25.33 13.85 25.33 12.71L25.33 12.71L25.33 7.64L24.30 7.64L24.30 7.10L25.45 6.69L26.07 5.29L26.70 5.29L26.70 6.85L28.78 6.85L28.78 7.76L26.70 7.64L26.70 12.80L28.59 13.08L28.59 13.55ZM32.20 7.56L32.20 7.56Q31.54 7.56 30.93 7.76L30.93 7.76L30.60 8.95L30.06 8.95L29.82 7.22L29.82 7.22Q31.22 6.71 32.52 6.71L32.52 6.71L32.52 6.71Q33.59 6.71 34.15 7.06L34.15 7.06L34.15 7.06Q34.71 7.42 34.71 8.30L34.71 8.30L34.71 12.80L35.91 13.09L35.91 13.55L35.91 13.55Q35.13 13.78 34.41 13.78L34.41 13.78L34.41 13.78Q34.02 13.78 33.73 13.58L33.73 13.58L33.73 13.58Q33.43 13.38 33.35 13.02L33.35 13.02L33.35 13.02Q32.77 13.44 32.21 13.66L32.21 13.66L32.21 13.66Q31.65 13.87 31.04 13.87L31.04 13.87L31.04 13.87Q30.31 13.87 29.90 13.37L29.90 13.37L29.90 13.37Q29.48 12.87 29.48 12.15L29.48 12.15L29.48 12.15Q29.48 11.48 29.87 10.92L29.87 10.92L29.87 10.92Q30.25 10.36 31.26 10.18L31.26 10.18L33.32 9.80L33.32 8.68L33.32 8.68Q33.32 8.11 33.08 7.83L33.08 7.83L33.08 7.83Q32.83 7.56 32.20 7.56L32.20 7.56ZM32.05 10.70L32.05 10.70Q30.90 10.92 30.90 11.94L30.90 11.94L30.90 11.94Q30.90 12.92 31.84 12.92L31.84 12.92L31.84 12.92Q32.44 12.92 33.32 12.45L33.32 12.45L33.32 10.47L32.05 10.70ZM38.39 5.66L38.39 5.66Q38.00 5.66 37.72 5.40L37.72 5.40L37.72 5.40Q37.44 5.14 37.44 4.76L37.44 4.76L37.44 4.76Q37.44 4.38 37.72 4.10L37.72 4.10L37.72 4.10Q38.01 3.82 38.39 3.82L38.39 3.82L38.39 3.82Q38.75 3.82 39.04 4.10L39.04 4.10L39.04 4.10Q39.33 4.38 39.33 4.76L39.33 4.76L39.33 4.76Q39.33 5.14 39.05 5.40L39.05 5.40L39.05 5.40Q38.77 5.66 38.39 5.66L38.39 5.66ZM40.29 13.72L36.50 13.72L36.50 13.19L37.70 12.91L37.70 7.81L36.50 7.67L36.50 7.24L38.65 6.71L39.09 6.71L39.09 12.91L40.29 13.19L40.29 13.72ZM43.54 7.27L43.54 7.27Q44.02 7.07 44.72 6.89L44.72 6.89L44.72 6.89Q45.42 6.71 46.03 6.71L46.03 6.71L46.03 6.71Q46.83 6.71 47.34 7.06L47.34 7.06L47.34 7.06Q47.85 7.42 47.85 8.22L47.85 8.22L47.85 12.91L49.07 13.26L49.07 13.72L45.42 13.72L45.42 13.26L46.47 12.91L46.47 8.53L46.47 8.53Q46.47 8.16 46.36 7.97L46.36 7.97L46.36 7.97Q46.26 7.78 45.99 7.71L45.99 7.71L45.99 7.71Q45.72 7.64 45.21 7.64L45.21 7.64L45.21 7.64Q44.28 7.64 43.54 7.85L43.54 7.85L43.54 12.91L44.59 13.26L44.59 13.72L40.95 13.72L40.95 13.26L42.15 12.91L42.15 7.81L40.95 7.67L40.95 7.22L43.09 6.71L43.54 6.71L43.54 7.27ZM49.69 13.72L49.69 13.26L50.89 12.91L50.89 7.81L49.69 7.67L49.69 7.22L51.83 6.71L52.28 6.71L52.28 7.27L52.28 7.27Q52.75 7.06 53.41 6.88L53.41 6.88L53.41 6.88Q54.07 6.71 54.64 6.71L54.64 6.71L54.64 6.71Q55.10 6.71 55.50 6.85L55.50 6.85L55.50 6.85Q55.90 7.00 56.13 7.29L56.13 7.29L56.13 7.29Q57.67 6.71 58.74 6.71L58.74 6.71L58.74 6.71Q59.58 6.71 60.05 7.08L60.05 7.08L60.05 7.08Q60.51 7.45 60.51 8.22L60.51 8.22L60.51 12.91L61.74 13.26L61.74 13.72L58.14 13.72L58.14 13.26L59.12 12.91L59.12 8.53L59.12 8.53Q59.12 8.18 59.02 7.99L59.02 7.99L59.02 7.99Q58.91 7.80 58.65 7.72L58.65 7.72L58.65 7.72Q58.38 7.64 57.86 7.64L57.86 7.64L57.86 7.64Q57.01 7.64 56.35 7.85L56.35 7.85L56.35 7.85Q56.39 7.99 56.39 8.25L56.39 8.25L56.39 12.91L57.37 13.26L57.37 13.72L54.03 13.72L54.03 13.26L55.01 12.91L55.01 8.53L55.01 8.53Q55.01 8.16 54.90 7.97L54.90 7.97L54.90 7.97Q54.80 7.78 54.52 7.71L54.52 7.71L54.52 7.71Q54.25 7.64 53.70 7.64L53.70 7.64L53.70 7.64Q53.34 7.64 52.95 7.70L52.95 7.70L52.95 7.70Q52.56 7.76 52.28 7.85L52.28 7.85L52.28 12.91L53.24 13.26L53.24 13.72L49.69 13.72ZM65.69 13.87L65.69 13.87Q64.04 13.87 63.25 12.94L63.25 12.94L63.25 12.94Q62.47 12.01 62.47 10.32L62.47 10.32L62.47 10.32Q62.47 8.51 63.27 7.61L63.27 7.61L63.27 7.61Q64.08 6.71 65.53 6.71L65.53 6.71L65.53 6.71Q66.92 6.71 67.57 7.35L67.57 7.35L67.57 7.35Q68.22 7.99 68.22 9.37L68.22 9.37L68.22 9.37Q68.22 9.73 68.18 10.14L68.18 10.14L63.98 10.14L63.98 10.54L63.98 10.54Q63.98 11.77 64.51 12.40L64.51 12.40L64.51 12.40Q65.03 13.03 66.00 13.03L66.00 13.03L66.00 13.03Q66.89 13.03 68.04 12.71L68.04 12.71L68.14 13.20L68.14 13.20Q67.58 13.55 67.00 13.71L67.00 13.71L67.00 13.71Q66.43 13.87 65.69 13.87L65.69 13.87ZM64.01 9.56L66.77 9.41L66.77 9.10L66.77 9.10Q66.77 8.29 66.50 7.89L66.50 7.89L66.50 7.89Q66.23 7.49 65.62 7.49L65.62 7.49L65.62 7.49Q64.78 7.49 64.42 7.97L64.42 7.97L64.42 7.97Q64.06 8.46 64.01 9.56L64.01 9.56ZM71.62 7.27L71.62 7.27Q72.10 7.07 72.80 6.89L72.80 6.89L72.80 6.89Q73.50 6.71 74.12 6.71L74.12 6.71L74.12 6.71Q74.91 6.71 75.42 7.06L75.42 7.06L75.42 7.06Q75.94 7.42 75.94 8.22L75.94 8.22L75.94 12.91L77.15 13.26L77.15 13.72L73.50 13.72L73.50 13.26L74.55 12.91L74.55 8.53L74.55 8.53Q74.55 8.16 74.44 7.97L74.44 7.97L74.44 7.97Q74.34 7.78 74.07 7.71L74.07 7.71L74.07 7.71Q73.81 7.64 73.29 7.64L73.29 7.64L73.29 7.64Q72.37 7.64 71.62 7.85L71.62 7.85L71.62 12.91L72.67 13.26L72.67 13.72L69.03 13.72L69.03 13.26L70.24 12.91L70.24 7.81L69.03 7.67L69.03 7.22L71.18 6.71L71.62 6.71L71.62 7.27ZM81.96 13.55L81.96 13.55Q81.55 13.66 80.87 13.76L80.87 13.76L80.87 13.76Q80.19 13.85 79.83 13.85L79.83 13.85L79.83 13.85Q78.69 13.85 78.69 12.71L78.69 12.71L78.69 7.64L77.67 7.64L77.67 7.10L78.82 6.69L79.44 5.29L80.07 5.29L80.07 6.85L82.15 6.85L82.15 7.76L80.07 7.64L80.07 12.80L81.96 13.08L81.96 13.55Z"></path></g><defs data-v-423bf9ae=""><linearGradient data-v-423bf9ae="" gradientTransform="rotate(25)" id="3c09a794-1493-429f-9ffe-34ee498ad2b0" x1="0%" y1="0%" x2="100%" y2="0%"><stop data-v-423bf9ae="" offset="0%" style="stop-color: rgb(39, 109, 142); stop-opacity: 1;"></stop><stop data-v-423bf9ae="" offset="100%" style="stop-color: rgb(221, 223, 212); stop-opacity: 1;"></stop></linearGradient></defs><g data-v-423bf9ae="" id="d02bca26-070e-4068-bc10-a68203bae41f" transform="matrix(1,0,0,1,-4.608001708984375,-5)" stroke="none" fill="url(#3c09a794-1493-429f-9ffe-34ee498ad2b0)"><path d="M73.591 21.324v-3.697c0-.161-.034-.321-.086-.479l21.103-6.051L50.02 5 5.392 11.338l13.302 3.75v5.134a1.447 1.447 0 0 0-1.141 1.323h-.01c0 .012.005.024.006.036-.001.02-.006.039-.006.059h.009v7.307h.6v-6.686c.052.022.107.041.164.059v7.226h.6v-7.124c.026.001.051.005.077.005.03 0 .057-.004.087-.005v7.125h.6v-7.229c.057-.019.112-.038.164-.061v6.69h.6V21.64v-.096h-.01a1.447 1.447 0 0 0-1.141-1.323v-4.965l7.161 2.019a1.497 1.497 0 0 0-.047.351v9.636c-4.846 4.993-7.851 11.781-7.892 19.263l-7.786 22.076h10.433V74.1h.9v.002h-.9c0 5.826 4.739 10.565 10.565 10.565h5.85V95h44.378V66.144c5.104-5.241 7.91-12.138 7.91-19.463.001-11.238-6.679-20.939-16.274-25.357zm-49.488 28.93a3.44 3.44 0 1 1 6.881.001 3.44 3.44 0 0 1-6.881-.001zM80.42 65.138l-.263.264V93.2H54.919V82.867h-7.65c-4.833 0-8.764-3.932-8.764-8.765h-.9V74.1h.9v-7.299h-9.689l7.042-19.967v-.154c0-14.394 11.71-26.105 26.104-26.105 14.394 0 26.104 11.711 26.104 26.105 0 6.971-2.715 13.526-7.646 18.458zM47.003 50.254a3.44 3.44 0 1 1-6.882 0 3.44 3.44 0 0 1 6.882 0zm32.63-12.237a5.762 5.762 0 0 1-.392 7.461 5.778 5.778 0 0 1-3.483 4.862v.021c-2.357 1.373-3.767 3.716-4.193 6.528h-2.182l-1.216-.003H66.09v-6.2c0-2.276-1.427-4.435-3.226-5.203-.858-.334-1.753-.892-2.404-1.621a5.763 5.763 0 0 1-6.487.01 5.843 5.843 0 0 1-3.214.959 5.903 5.903 0 0 1-2.321-11.327 5.777 5.777 0 0 1 5.644-4.541c.147 0 .28.013.417.019a5.787 5.787 0 0 1 4.786-2.524c.984 0 1.908.245 2.719.682a5.756 5.756 0 0 1 7.114.586 5.816 5.816 0 0 1 1.35-.166c2.338 0 4.359 1.408 5.262 3.424a5.779 5.779 0 0 1 3.903 7.033z"></path></g><!----></svg>